<?xml version="1.0" encoding="UTF-8"?>
<svg xmlns="http://www.w3.org/2000/svg" xmlns:xlink="http://www.w3.org/1999/xlink" width="358px" height="49px" viewBox="0 0 361 49" version="1.1">
<g id="surface1">
<path style=" stroke:none;fill-rule:nonzero;fill:rgb(85.490196%,36.078431%,44.313725%);fill-opacity:1;" d="M 0 0 L 224.589844 0 L 224.589844 49 L 0 49 Z M 0 0 "/>
<path style=" stroke:none;fill-rule:nonzero;fill:rgb(94.117647%,6.666667%,23.529412%);fill-opacity:1;" d="M 221.792969 0 L 360.636719 0 L 360.636719 49 L 221.792969 49 Z M 221.792969 0 "/>
<path style=" stroke:none;fill-rule:nonzero;fill:rgb(100%,100%,100%);fill-opacity:1;" d="M 21.96875 30.800781 L 19.898438 30.800781 L 19.898438 18.859375 L 24.09375 18.859375 C 25.464844 18.859375 26.53125 19.164062 27.285156 19.78125 C 28.03125 20.398438 28.402344 21.292969 28.402344 22.46875 C 28.402344 23.261719 28.214844 23.929688 27.832031 24.472656 C 27.4375 25.011719 26.898438 25.429688 26.207031 25.71875 L 28.894531 30.6875 L 28.894531 30.800781 L 26.667969 30.800781 L 24.277344 26.195312 L 21.96875 26.195312 Z M 21.96875 20.523438 L 21.96875 24.527344 L 24.09375 24.527344 C 24.792969 24.527344 25.339844 24.355469 25.730469 24.011719 C 26.132812 23.65625 26.332031 23.171875 26.332031 22.554688 C 26.332031 21.917969 26.152344 21.425781 25.789062 21.070312 C 25.425781 20.726562 24.878906 20.542969 24.152344 20.523438 Z M 42.355469 30.800781 L 34.546875 30.800781 L 34.546875 18.859375 L 42.296875 18.859375 L 42.296875 20.523438 L 36.632812 20.523438 L 36.632812 23.828125 L 41.527344 23.828125 L 41.527344 25.464844 L 36.632812 25.464844 L 36.632812 29.148438 L 42.355469 29.148438 Z M 47.617188 27.1875 L 49.699219 27.1875 C 49.699219 27.871094 49.925781 28.398438 50.371094 28.769531 C 50.820312 29.144531 51.457031 29.328125 52.289062 29.328125 C 53.015625 29.328125 53.5625 29.179688 53.925781 28.882812 C 54.289062 28.59375 54.472656 28.207031 54.472656 27.71875 C 54.472656 27.199219 54.285156 26.796875 53.914062 26.515625 C 53.546875 26.226562 52.882812 25.9375 51.910156 25.648438 C 50.949219 25.359375 50.183594 25.035156 49.617188 24.683594 C 48.535156 24 47.992188 23.109375 47.992188 22.007812 C 47.992188 21.046875 48.386719 20.253906 49.167969 19.628906 C 49.953125 19.003906 50.96875 18.691406 52.21875 18.691406 C 53.050781 18.691406 53.789062 18.84375 54.445312 19.152344 C 55.097656 19.460938 55.605469 19.894531 55.96875 20.453125 C 56.34375 21.023438 56.527344 21.652344 56.527344 22.34375 L 54.472656 22.34375 C 54.472656 21.71875 54.277344 21.230469 53.882812 20.875 C 53.492188 20.527344 52.933594 20.355469 52.203125 20.355469 C 51.523438 20.355469 50.996094 20.5 50.625 20.789062 C 50.25 21.078125 50.0625 21.480469 50.0625 21.992188 C 50.0625 22.433594 50.265625 22.800781 50.664062 23.101562 C 51.078125 23.390625 51.742188 23.667969 52.667969 23.941406 C 53.601562 24.21875 54.347656 24.539062 54.90625 24.890625 C 55.472656 25.246094 55.890625 25.652344 56.152344 26.109375 C 56.410156 26.558594 56.542969 27.089844 56.542969 27.707031 C 56.542969 28.703125 56.160156 29.496094 55.394531 30.085938 C 54.628906 30.675781 53.59375 30.96875 52.289062 30.96875 C 51.429688 30.96875 50.636719 30.804688 49.910156 30.476562 C 49.183594 30.160156 48.617188 29.722656 48.21875 29.160156 C 47.816406 28.59375 47.617188 27.933594 47.617188 27.1875 Z M 64.726562 30.800781 L 62.671875 30.800781 L 62.671875 18.859375 L 64.726562 18.859375 Z M 74.902344 30.800781 L 71.457031 30.800781 L 71.457031 18.859375 L 74.984375 18.859375 C 76.039062 18.859375 76.976562 19.089844 77.796875 19.558594 C 78.617188 20.035156 79.253906 20.703125 79.699219 21.558594 C 80.148438 22.429688 80.371094 23.417969 80.371094 24.527344 L 80.371094 25.128906 C 80.371094 26.257812 80.144531 27.253906 79.6875 28.113281 C 79.238281 28.96875 78.597656 29.632812 77.769531 30.101562 C 76.929688 30.566406 75.972656 30.800781 74.902344 30.800781 Z M 73.542969 20.523438 L 73.542969 29.148438 L 74.886719 29.148438 C 75.976562 29.148438 76.8125 28.808594 77.390625 28.125 C 77.980469 27.445312 78.277344 26.464844 78.285156 25.1875 L 78.285156 24.527344 C 78.285156 23.230469 78.003906 22.242188 77.433594 21.558594 C 76.875 20.871094 76.058594 20.523438 74.984375 20.523438 Z M 94.417969 30.800781 L 86.613281 30.800781 L 86.613281 18.859375 L 94.363281 18.859375 L 94.363281 20.523438 L 88.683594 20.523438 L 88.683594 23.828125 L 93.59375 23.828125 L 93.59375 25.464844 L 88.683594 25.464844 L 88.683594 29.148438 L 94.417969 29.148438 Z M 102.367188 30.800781 L 100.28125 30.800781 L 100.28125 18.859375 L 102.367188 18.859375 L 107.699219 27.355469 L 107.699219 18.859375 L 109.753906 18.859375 L 109.753906 30.800781 L 107.683594 30.800781 L 102.367188 22.328125 Z M 118.738281 20.523438 L 115.058594 20.523438 L 115.058594 18.859375 L 124.515625 18.859375 L 124.515625 20.523438 L 120.796875 20.523438 L 120.796875 30.800781 L 118.738281 30.800781 Z M 145.953125 30.800781 L 138.144531 30.800781 L 138.144531 18.859375 L 145.882812 18.859375 L 145.882812 20.523438 L 140.214844 20.523438 L 140.214844 23.828125 L 145.113281 23.828125 L 145.113281 25.464844 L 140.214844 25.464844 L 140.214844 29.148438 L 145.953125 29.148438 Z M 155.035156 30.800781 L 150.753906 18.859375 L 153.019531 18.859375 L 156.027344 28.195312 L 159.050781 18.859375 L 161.332031 18.859375 L 157.035156 30.800781 Z M 169.054688 30.800781 L 166.984375 30.800781 L 166.984375 18.859375 L 169.054688 18.859375 Z M 183.269531 30.800781 L 175.785156 30.800781 L 175.785156 18.859375 L 177.855469 18.859375 L 177.855469 29.148438 L 183.269531 29.148438 Z M 196.675781 28.140625 L 196.617188 26.921875 L 201.769531 18.859375 L 203.824219 18.859375 L 203.824219 26.542969 L 205.308594 26.542969 L 205.308594 28.140625 L 203.824219 28.140625 L 203.824219 30.800781 L 201.839844 30.800781 L 201.839844 28.140625 Z M 201.683594 21.8125 L 198.71875 26.542969 L 201.839844 26.542969 L 201.839844 21.558594 Z M 201.683594 21.8125 "/>
<path style=" stroke:none;fill-rule:nonzero;fill:rgb(100%,100%,100%);fill-opacity:1;" d="M 244.152344 21.671875 L 240.539062 21.671875 L 240.539062 19.039062 L 251.0625 19.039062 L 251.0625 21.671875 L 247.46875 21.671875 L 247.46875 30.800781 L 244.152344 30.800781 Z M 260.089844 30.800781 L 256.28125 19.039062 L 259.710938 19.039062 L 262.0625 26.542969 L 264.550781 19.039062 L 267.601562 19.039062 L 269.980469 26.613281 L 272.441406 19.039062 L 275.621094 19.039062 L 271.800781 30.800781 L 268.246094 30.800781 L 266.007812 23.644531 L 263.640625 30.800781 Z M 291.359375 30.800781 L 281.929688 30.800781 L 281.929688 19.039062 L 291.152344 19.039062 L 291.152344 21.617188 L 285.230469 21.617188 L 285.230469 23.589844 L 290.449219 23.589844 L 290.449219 26.082031 L 285.230469 26.082031 L 285.230469 28.238281 L 291.359375 28.238281 Z M 300.078125 30.800781 L 296.675781 30.800781 L 301.867188 19.039062 L 305.144531 19.039062 L 310.347656 30.800781 L 306.890625 30.800781 L 305.96875 28.519531 L 301 28.519531 Z M 303.492188 22.300781 L 301.964844 26.054688 L 304.988281 26.054688 Z M 319.457031 30.800781 L 316.15625 30.800781 L 316.15625 19.039062 L 319.457031 19.039062 L 319.457031 23.925781 L 324.003906 19.039062 L 327.65625 19.039062 L 322.871094 24.246094 L 327.921875 30.800781 L 324.058594 30.800781 L 320.6875 26.53125 L 319.457031 27.859375 Z M 332.847656 29.734375 L 333.9375 27.285156 C 334.460938 27.632812 335.066406 27.910156 335.757812 28.125 C 336.457031 28.339844 337.144531 28.449219 337.816406 28.449219 C 339.082031 28.449219 339.722656 28.128906 339.730469 27.496094 C 339.730469 27.160156 339.550781 26.914062 339.1875 26.753906 C 338.824219 26.585938 338.234375 26.414062 337.421875 26.234375 C 336.535156 26.039062 335.800781 25.835938 335.210938 25.621094 C 334.617188 25.394531 334.105469 25.046875 333.6875 24.570312 C 333.257812 24.085938 333.042969 23.4375 333.042969 22.625 C 333.042969 21.90625 333.238281 21.257812 333.632812 20.679688 C 334.023438 20.097656 334.609375 19.640625 335.394531 19.304688 C 336.167969 18.96875 337.121094 18.800781 338.25 18.800781 C 339.023438 18.800781 339.78125 18.890625 340.53125 19.066406 C 341.285156 19.234375 341.945312 19.492188 342.515625 19.839844 L 341.496094 22.300781 C 340.375 21.695312 339.289062 21.390625 338.234375 21.390625 C 337.574219 21.390625 337.09375 21.488281 336.792969 21.6875 C 336.484375 21.882812 336.332031 22.136719 336.332031 22.457031 C 336.332031 22.765625 336.511719 22.996094 336.878906 23.15625 C 337.230469 23.316406 337.804688 23.476562 338.597656 23.644531 C 339.492188 23.84375 340.234375 24.046875 340.824219 24.261719 C 341.410156 24.476562 341.917969 24.820312 342.347656 25.296875 C 342.785156 25.773438 343.007812 26.421875 343.007812 27.242188 C 343.007812 27.945312 342.808594 28.582031 342.417969 29.160156 C 342.027344 29.730469 341.4375 30.183594 340.65625 30.519531 C 339.871094 30.867188 338.921875 31.039062 337.800781 31.039062 C 336.847656 31.039062 335.925781 30.921875 335.03125 30.6875 C 334.136719 30.453125 333.40625 30.136719 332.847656 29.734375 Z M 332.847656 29.734375 "/>
</g>
</svg>