<?xml version="1.0" encoding="utf-8"?>
<!-- Generator: Adobe Illustrator 26.0.0, SVG Export Plug-In . SVG Version: 6.00 Build 0)  -->
<svg version="1.1" id="Layer_1" xmlns="http://www.w3.org/2000/svg" xmlns:xlink="http://www.w3.org/1999/xlink" x="0px" y="0px"
	 viewBox="0 0 358 49" style="enable-background:new 0 0 358 49;" xml:space="preserve">
<style type="text/css">
	.st0{fill:#272727;}
	.st1{fill:#F0113C;}
	.st2{fill:#FFFFFF;}
</style>
<g id="surface1">
	<path class="st0" d="M0,0.2h222.7v48.6H0V0.2z"/>
	<path class="st1" d="M219.9,0.2h137.7v48.6H219.9V0.2z"/>
	<path class="st2" d="M21.8,30.7h-2.1V18.9h4.2c1.4,0,2.4,0.3,3.2,0.9c0.7,0.6,1.1,1.5,1.1,2.7c0,0.8-0.2,1.4-0.6,2
		c-0.4,0.5-0.9,0.9-1.6,1.2l2.7,4.9v0.1h-2.2l-2.4-4.6h-2.3V30.7z M21.8,20.6v4h2.1c0.7,0,1.2-0.2,1.6-0.5c0.4-0.4,0.6-0.8,0.6-1.4
		c0-0.6-0.2-1.1-0.5-1.5c-0.4-0.3-0.9-0.5-1.6-0.5H21.8z M42,30.7h-7.7V18.9h7.7v1.7h-5.6v3.3h4.9v1.6h-4.9v3.7H42V30.7z M47.2,27.2
		h2.1c0,0.7,0.2,1.2,0.7,1.6c0.4,0.4,1.1,0.6,1.9,0.6c0.7,0,1.3-0.1,1.6-0.4c0.4-0.3,0.5-0.7,0.5-1.2c0-0.5-0.2-0.9-0.6-1.2
		c-0.4-0.3-1-0.6-2-0.9c-1-0.3-1.7-0.6-2.3-1c-1.1-0.7-1.6-1.6-1.6-2.7c0-1,0.4-1.7,1.2-2.4c0.8-0.6,1.8-0.9,3-0.9
		c0.8,0,1.6,0.2,2.2,0.5c0.6,0.3,1.2,0.7,1.5,1.3c0.4,0.6,0.6,1.2,0.6,1.9h-2c0-0.6-0.2-1.1-0.6-1.5c-0.4-0.3-0.9-0.5-1.7-0.5
		c-0.7,0-1.2,0.1-1.6,0.4c-0.4,0.3-0.6,0.7-0.6,1.2c0,0.4,0.2,0.8,0.6,1.1c0.4,0.3,1.1,0.6,2,0.8c0.9,0.3,1.7,0.6,2.2,0.9
		c0.6,0.4,1,0.8,1.2,1.2c0.3,0.4,0.4,1,0.4,1.6c0,1-0.4,1.8-1.1,2.4c-0.8,0.6-1.8,0.9-3.1,0.9c-0.9,0-1.6-0.2-2.4-0.5
		c-0.7-0.3-1.3-0.7-1.7-1.3C47.4,28.6,47.2,27.9,47.2,27.2z M64.2,30.7h-2V18.9h2V30.7z M74.3,30.7h-3.4V18.9h3.5c1,0,2,0.2,2.8,0.7
		c0.8,0.5,1.4,1.1,1.9,2c0.4,0.9,0.7,1.8,0.7,2.9v0.6c0,1.1-0.2,2.1-0.7,3c-0.4,0.8-1.1,1.5-1.9,2C76.3,30.5,75.3,30.7,74.3,30.7z
		 M72.9,20.6v8.6h1.3c1.1,0,1.9-0.3,2.5-1c0.6-0.7,0.9-1.6,0.9-2.9v-0.7c0-1.3-0.3-2.3-0.8-2.9c-0.6-0.7-1.4-1-2.4-1H72.9z
		 M93.6,30.7h-7.7V18.9h7.7v1.7h-5.6v3.3h4.9v1.6h-4.9v3.7h5.7V30.7z M101.5,30.7h-2.1V18.9h2.1l5.3,8.4v-8.4h2v11.8h-2.1l-5.3-8.4
		V30.7z M117.8,20.6h-3.6v-1.7h9.4v1.7h-3.7v10.2h-2V20.6z M144.7,30.7H137V18.9h7.7v1.7H139v3.3h4.9v1.6H139v3.7h5.7V30.7z
		 M153.7,30.7l-4.2-11.8h2.2l3,9.3l3-9.3h2.3l-4.3,11.8H153.7z M167.6,30.7h-2.1V18.9h2.1V30.7z M181.7,30.7h-7.4V18.9h2.1v10.2h5.4
		V30.7z M195,28.1l-0.1-1.2l5.1-8h2v7.6h1.5v1.6h-1.5v2.6h-2v-2.6H195z M200,21.8l-2.9,4.7h3.1v-4.9L200,21.8z"/>
	<path class="st2" d="M242.1,21.7h-3.6v-2.6H249v2.6h-3.6v9.1h-3.3V21.7z M257.9,30.7l-3.8-11.7h3.4l2.3,7.4l2.5-7.4h3l2.4,7.5
		l2.4-7.5h3.2l-3.8,11.7H266l-2.2-7.1l-2.3,7.1H257.9z M288.9,30.7h-9.4V19.1h9.1v2.6h-5.9v2h5.2v2.5h-5.2v2.1h6.1V30.7z
		 M297.6,30.7h-3.4l5.1-11.7h3.3l5.2,11.7h-3.4l-0.9-2.3h-4.9L297.6,30.7z M301,22.3l-1.5,3.7h3L301,22.3z M316.8,30.7h-3.3V19.1
		h3.3v4.8l4.5-4.8h3.6l-4.7,5.2l5,6.5h-3.8l-3.3-4.2l-1.2,1.3V30.7z M330.1,29.7l1.1-2.4c0.5,0.3,1.1,0.6,1.8,0.8
		c0.7,0.2,1.4,0.3,2,0.3c1.3,0,1.9-0.3,1.9-0.9c0-0.3-0.2-0.6-0.5-0.7c-0.4-0.2-0.9-0.3-1.8-0.5c-0.9-0.2-1.6-0.4-2.2-0.6
		c-0.6-0.2-1.1-0.6-1.5-1c-0.4-0.5-0.6-1.1-0.6-1.9c0-0.7,0.2-1.4,0.6-1.9c0.4-0.6,1-1,1.7-1.4c0.8-0.3,1.7-0.5,2.8-0.5
		c0.8,0,1.5,0.1,2.3,0.3c0.7,0.2,1.4,0.4,2,0.8l-1,2.4c-1.1-0.6-2.2-0.9-3.2-0.9c-0.7,0-1.1,0.1-1.4,0.3c-0.3,0.2-0.5,0.4-0.5,0.8
		c0,0.3,0.2,0.5,0.5,0.7c0.3,0.2,0.9,0.3,1.7,0.5c0.9,0.2,1.6,0.4,2.2,0.6c0.6,0.2,1.1,0.6,1.5,1c0.4,0.5,0.7,1.1,0.7,1.9
		c0,0.7-0.2,1.3-0.6,1.9c-0.4,0.6-1,1-1.7,1.3c-0.8,0.3-1.7,0.5-2.8,0.5c-0.9,0-1.9-0.1-2.7-0.3C331.4,30.4,330.6,30.1,330.1,29.7z"
		/>
</g>
</svg>
